{
    "asset" : {
        "generator" : "Khronos glTF Blender I/O v1.1.46",
        "version" : "2.0"
    },
    "scene" : 0,
    "scenes" : [
        {
            "name" : "Scene",
            "nodes" : [
                0
            ]
        }
    ],
    "nodes" : [
        {
            "mesh" : 0,
            "name" : "PolySphere"
        }
    ],
    "materials" : [
        {
            "doubleSided" : true,
            "name" : "Ball",
            "pbrMetallicRoughness" : {}
        }
    ],
    "meshes" : [
        {
            "name" : "Cube.001",
            "primitives" : [
                {
                    "attributes" : {
                        "POSITION" : 0,
                        "NORMAL" : 1,
                        "TEXCOORD_0" : 2
                    },
                    "indices" : 3,
                    "material" : 0
                }
            ]
        }
    ],
    "accessors" : [
        {
            "bufferView" : 0,
            "componentType" : 5126,
            "count" : 1176,
            "max" : [
                0.9948975443840027,
                0.9948975443840027,
                0.9898132085800171
            ],
            "min" : [
                -0.9948975443840027,
                -0.9948975443840027,
                -0.9898132085800171
            ],
            "type" : "VEC3"
        },
        {
            "bufferView" : 1,
            "componentType" : 5126,
            "count" : 1176,
            "type" : "VEC3"
        },
        {
            "bufferView" : 2,
            "componentType" : 5126,
            "count" : 1176,
            "type" : "VEC2"
        },
        {
            "bufferView" : 3,
            "componentType" : 5123,
            "count" : 5952,
            "type" : "SCALAR"
        }
    ],
    "bufferViews" : [
        {
            "buffer" : 0,
            "byteLength" : 14112,
            "byteOffset" : 0
        },
        {
            "buffer" : 0,
            "byteLength" : 14112,
            "byteOffset" : 14112
        },
        {
            "buffer" : 0,
            "byteLength" : 9408,
            "byteOffset" : 28224
        },
        {
            "buffer" : 0,
            "byteLength" : 11904,
            "byteOffset" : 37632
        }
    ],
    "buffers" : [
        {
            "byteLength" : 49536,
            "uri" : "data:application/octet-stream;base64,"
        }
    ]
}
